<svg xmlns="http://www.w3.org/2000/svg" viewBox="0 0 512 512">
  <rect width="512" height="512" rx="100" fill="#0ea5e9"/>
  <rect x="64" y="148" width="384" height="268" rx="32" fill="white" opacity="0.15"/>
  <rect x="64" y="148" width="384" height="268" rx="32" fill="none" stroke="white" stroke-width="10" opacity="0.6"/>
  <!-- Barcode lines -->
  <rect x="112" y="200" width="22" height="160" rx="5" fill="white"/>
  <rect x="148" y="200" width="11" height="160" rx="5" fill="white"/>
  <rect x="170" y="200" width="27" height="160" rx="5" fill="white"/>
  <rect x="212" y="200" width="16" height="160" rx="5" fill="white"/>
  <rect x="242" y="200" width="11" height="160" rx="5" fill="white"/>
  <rect x="266" y="200" width="32" height="160" rx="5" fill="white"/>
  <rect x="316" y="200" width="16" height="160" rx="5" fill="white"/>
  <rect x="346" y="200" width="11" height="160" rx="5" fill="white"/>
  <rect x="370" y="200" width="22" height="160" rx="5" fill="white"/>
  <!-- Check mark circle -->
  <circle cx="394" cy="134" r="58" fill="#10b981"/>
  <polyline points="368,134 386,154 422,112" fill="none" stroke="white" stroke-width="14" stroke-linecap="round" stroke-linejoin="round"/>
</svg>
